             Red.Riding.Hood.2011.BRRip.XviD-RLF
             ~~~~~~~~~~~~~~~~~~~~~~~~~~~~~~~~~~~
                            
                          General:


       Complete name                    : rlf-hood.avi
       Format                           : AVI
       Format/Info                      : Audio Video Interleave
       File size                        : 702 MiB
       Duration                         : 1h 40mn
       Overall bit rate                 : 978 Kbps
       Language                         : English
       Subs                             : Polish, English
       Encoder                          : Ralf

                           Video:

       Format                           : MPEG-4 Visual
       Format profile                   : Advanced Simple@L5
       Format settings, BVOP            : 2
       Format settings, QPel            : No
       Format settings, GMC             : No warppoints
       Format settings, Matrix          : H.263
       Muxing mode                      : Packed bitstream
       Codec ID                         : XVID
       Duration                         : 1h 40mn
       Bit rate                         : 842 Kbps
       Width                            : 680 pixels
       Height                           : 334 pixels
       Display aspect ratio             : 2.036
       Frame rate                       : 23.976 fps
       Chroma subsampling               : 4:2:0
       Bit depth                        : 8 bits
       Scan type                        : Progressive
       Bits/(Pixel*Frame)               : 0.155
       Stream size                      : 605 MiB (86%)
       Writing library                  : XviD 1.2.1

                           Audio:

       Format                           : MPEG Audio
       Format profile                   : Layer 3
       Mode                             : Joint stereo
       Mode extension                   : MS Stereo
       Codec ID/Hint                    : MP3
       Duration                         : 1h 40mn
       Bit rate mode                    : Constant
       Bit rate                         : 128 Kbps
       Channel(s)                       : 2 channels
       Sampling rate                    : 48.0 KHz
       Stream size                      : 91.9 MiB (13%)
       Alignment                        : Aligned on interleaves
       Interleave, preload duration     : 504 ms



                          MOVIE INFO:

      Set in a medieval village that is haunted by a werewolf, a 
      young girl falls for an orphaned woodcutter, much to her
                      family's displeasure.

              http://www.imdb.com/title/tt1486185/


                            SOURCE:

                   Felony 720p.BluRay.x264 (THX)

    
     http://www.leetleech.org/images/08945825864728768173.jpg

     http://www.leetleech.org/images/25355344649298795987.jpg

     http://www.leetleech.org/images/66219628516446808099.jpg

     http://www.leetleech.org/images/61283538342050645176.jpg

     http://www.leetleech.org/images/40636232440578688430.jpg